<?xml version="1.0" encoding="utf-8"?>
<!-- Generator: Adobe Illustrator 23.0.3, SVG Export Plug-In . SVG Version: 6.00 Build 0)  -->
<svg version="1.1" id="Warstwa_1" xmlns="http://www.w3.org/2000/svg" xmlns:xlink="http://www.w3.org/1999/xlink" x="0px" y="0px"
	 viewBox="0 0 1366 768" style="enable-background:new 0 0 1366 768;" xml:space="preserve">
<style type="text/css">
	.st0{opacity:0.64;}
	.st1{fill:#DDDDDD;}
</style>
<g class="st0">
	<path class="st1" d="M774.2,240.9c-9.1,0-17.1,6.5-18.1,14.5c-1.1,9.6,8.4,17.6,25.4,21.5l29,6.1
		C802.4,256.4,789.1,240.9,774.2,240.9z"/>
	<path class="st1" d="M780.6,287.7c-0.2-0.1-0.5-0.1-0.8-0.2l0,0c-0.4-0.1-0.7-0.2-1.1-0.2l-2.9-0.7l0-0.1c-0.1,0-0.2-0.1-0.3-0.1
		c-30.2-8.6-30.7-26.7-30-32.3c1.5-13.5,14.1-24,28.7-24c7.9,0,24.7,3.4,38.1,28.7V123h10.7v136.2c1.8-3.4,3.9-6.5,6.5-9.2
		c7.2-7.4,17-11.5,27.8-11.5c16.8,0,31.5,9.6,33.4,21.8c1,6.5-0.9,17.7-20.8,27.5h376.1L1081.4,123H692.3
		c-29.7,0-53.7,24.2-53.7,53.7v111.1h142.8L780.6,287.7z"/>
	<path class="st1" d="M854.8,282.6l0.9-0.3c19.2-6.9,25.3-14.9,24.5-20.3c-1-6.8-11.7-12.7-22.8-12.7c-7.9,0-15,2.9-20.1,8.2
		c-6.2,6.4-9.6,16.6-10,29.5c8.2-1.2,16.3-2.4,24.4-3.4l0.2,0C853,283.2,854,282.9,854.8,282.6z"/>
	<path class="st1" d="M812.4,298.6h-5.9c-12.5,3.6-25.4,12.8-36.1,26c-14.8,18.4-22.4,40.9-19.3,57.5c2.4,12.7,15.3,18.7,28.9,23.4
		c2.8,0.9,4.3,4,3.4,6.8c-0.8,2.2-2.9,3.6-5.1,3.6c-0.6,0-1.2-0.1-1.7-0.3c-15.9-5.4-32.7-13.4-36-31.6
		c-3.7-19.8,4.5-45.2,21.5-66.2c6.3-7.8,13.1-14.2,20.3-19.2H638.6v302.7c0,29.7,24.1,53.7,53.7,53.7h120V298.6z"/>
	<path class="st1" d="M843.3,298.6c11.9,7.2,22.9,16.6,32,27.7c4.7,5.7,8.4,11.1,11.3,16.2c6.8-3,13.9-4.8,20.5-5.2
		c22.6-1.1,45.2,16.7,49.5,38.2c0.6,2.9-1.3,5.7-4.2,6.3c-2.8,0.6-5.7-1.3-6.3-4.2c-3.2-16-22.1-30.2-38.4-29.5
		c-5.1,0.3-10.8,1.7-16.3,4.1c6.9,17.1,4,29.5-0.8,37.8c-5.4,9.3-11.8,10.9-15.7,10.9c-0.3,0-0.6,0-0.9,0
		c-6.5-0.4-12.5-5.5-15.7-13.1c-3.1-7.6-3.6-19.1,4.5-28.4c4-4.5,8.9-8.5,14.3-11.9c-3-5.2-6.5-10.1-10.1-14.4
		c-12-14.6-27.6-26.2-43.8-32.6V655h413.8c29.6,0,53.8-24.1,53.8-53.7V332.4l-33.8-33.8H843.3z M1218.8,579.8H943.1V436.5h275.7
		V579.8z"/>
	<path class="st1" d="M1236.9,123h-67.6l121.3,121.5v-67.7C1290.7,147.2,1266.5,123,1236.9,123z"/>
	<path class="st1" d="M868.1,383.7c1.5,3.6,4.1,6.3,6.4,6.4c2.1,0.3,4.5-1.9,6.6-5.6c4.9-8.5,4.1-18.1,0.6-27.3
		c-4.1,2.7-7.9,5.9-11,9.3C865.8,372.1,866.2,379,868.1,383.7z"/>
</g>
</svg>
