<?xml version="1.0" encoding="utf-8"?>
<!-- Generator: Adobe Illustrator 23.0.3, SVG Export Plug-In . SVG Version: 6.00 Build 0)  -->
<svg version="1.1" id="Warstwa_1" xmlns="http://www.w3.org/2000/svg" xmlns:xlink="http://www.w3.org/1999/xlink" x="0px" y="0px"
	 viewBox="0 0 713 124" style="enable-background:new 0 0 713 124;" xml:space="preserve">
<style type="text/css">
	.st0{fill:#BF0202;}
</style>
<g>
	<path d="M142,90.5c-0.6-0.6-0.9-1.3-0.9-2.2V47.7c0-0.9,0.3-1.7,0.9-2.2c0.6-0.6,1.3-0.9,2.2-0.9h27.1c0.9,0,1.7,0.3,2.2,0.8
		c0.6,0.5,0.8,1.2,0.8,2.1c0,0.8-0.3,1.5-0.8,2c-0.6,0.5-1.3,0.8-2.2,0.8h-24v14.6h17.2c0.9,0,1.6,0.3,2.2,0.8
		c0.6,0.5,0.9,1.2,0.9,2.1s-0.3,1.5-0.9,2.1c-0.6,0.5-1.3,0.8-2.2,0.8h-17.2v17.6c0,0.9-0.3,1.6-0.9,2.2c-0.6,0.6-1.3,0.9-2.2,0.9
		C143.3,91.4,142.6,91.1,142,90.5z"/>
	<path d="M181.9,90.5c-0.6-0.6-0.9-1.3-0.9-2.2V47.7c0-0.9,0.3-1.7,0.9-2.2c0.6-0.6,1.3-0.9,2.2-0.9H195c4.5,0,8.5,1,12.1,3
		c3.5,2,6.3,4.8,8.2,8.3c2,3.5,2.9,7.6,2.9,12.1c0,4.5-1,8.6-2.9,12.1c-2,3.6-4.7,6.3-8.2,8.3c-3.5,2-7.5,3-12.1,3h-10.9
		C183.3,91.4,182.5,91.1,181.9,90.5z M195,85.9c3.3,0,6.3-0.8,8.9-2.3c2.6-1.5,4.7-3.7,6.1-6.4c1.5-2.7,2.2-5.8,2.2-9.3
		c0-3.4-0.7-6.5-2.2-9.2c-1.5-2.7-3.5-4.8-6.1-6.4c-2.6-1.5-5.6-2.3-8.9-2.3h-7.7v35.8H195z"/>
	<path d="M230.4,89.4c-3.2-1.8-5.4-4.1-6.6-6.9c-0.2-0.5-0.3-0.9-0.3-1.2c0-0.6,0.2-1.1,0.7-1.6c0.4-0.5,1-0.8,1.8-0.9
		c0.1,0,0.3-0.1,0.6-0.1c0.6,0,1.2,0.2,1.8,0.6c0.6,0.4,1,0.9,1.3,1.5c0.7,1.6,2.1,2.9,4.3,4c2.1,1.1,4.5,1.6,7,1.6
		c3,0,5.5-0.7,7.6-2.1c2.1-1.4,3.1-3.3,3.1-5.7c0-2.3-0.9-4.2-2.6-5.8c-1.8-1.6-4.4-2.6-8-3c-5-0.5-8.9-1.9-11.7-4.3
		c-2.8-2.4-4.3-5.4-4.3-9.1c0-2.6,0.7-4.8,2.2-6.6c1.5-1.9,3.5-3.3,6-4.3c2.5-1,5.4-1.5,8.6-1.5c3.4,0,6.3,0.7,8.7,2.1
		c2.4,1.4,4.4,3.4,6,6c0.5,0.8,0.7,1.5,0.7,2.2c0,0.9-0.4,1.6-1.2,2.2c-0.4,0.3-1,0.4-1.6,0.4s-1.2-0.2-1.7-0.5
		c-0.5-0.3-0.9-0.7-1.2-1.2c-1.1-1.8-2.4-3.2-4-4.1c-1.6-0.9-3.7-1.4-6.2-1.4c-3,0-5.5,0.6-7.4,1.8c-1.9,1.2-2.8,2.9-2.8,5.1
		c0,2.1,0.8,3.8,2.5,5.2c1.7,1.4,4.7,2.3,9,2.8c4.8,0.5,8.5,1.9,11.2,4.3c2.6,2.4,4,5.6,4,9.6c0,2.9-0.8,5.3-2.3,7.4
		s-3.6,3.6-6.2,4.6c-2.6,1-5.4,1.5-8.3,1.5C237.1,92,233.6,91.2,230.4,89.4z"/>
	<path d="M267.5,90.5c-0.6-0.6-0.9-1.3-0.9-2.2V47.7c0-0.9,0.3-1.7,0.9-2.2c0.6-0.6,1.3-0.9,2.2-0.9h12c3,0,5.6,0.7,7.9,2
		c2.3,1.3,4.2,3.2,5.5,5.5c1.3,2.4,2,5,2,8c0,2.9-0.7,5.5-2,7.8c-1.3,2.3-3.1,4.1-5.5,5.3c-2.3,1.3-5,1.9-7.9,1.9h-8.9v13.1
		c0,0.9-0.3,1.6-0.9,2.2c-0.6,0.6-1.3,0.9-2.2,0.9C268.8,91.4,268.1,91.1,267.5,90.5z M281.7,69.4c2.7,0,5-0.9,6.7-2.6
		c1.8-1.7,2.6-4,2.6-6.7c0-2.8-0.9-5.2-2.6-7c-1.8-1.8-4-2.8-6.7-2.8h-8.9v19.1H281.7z"/>
	<path d="M336.1,88.4c0,0.8-0.3,1.6-0.9,2.2c-0.6,0.6-1.3,0.9-2.2,0.9c-0.6,0-1.2-0.2-1.7-0.5c-0.5-0.3-0.9-0.8-1.2-1.4l-3.4-8.4
		h-21.5l-3.4,8.4c-0.3,0.6-0.7,1.1-1.2,1.4c-0.5,0.3-1.1,0.5-1.7,0.5c-0.9,0-1.6-0.3-2.2-0.9c-0.6-0.6-0.9-1.3-0.9-2.2
		c0-0.4,0.1-0.9,0.3-1.4L313,46.7c0.6-1.4,1.6-2.1,2.9-2.1c1.4,0,2.4,0.7,2.9,2.1l16.9,40.4C336,87.6,336.1,88,336.1,88.4z
		 M324.6,76l-8.6-21.4L307.3,76H324.6z"/>
	<path d="M373.2,88.6c0,0.8-0.3,1.5-0.8,2c-0.5,0.5-1.3,0.8-2.2,0.8c-1.2,0-2.1-0.5-2.7-1.5l-10.3-16.6h-1.1h-7.7v14.9
		c0,0.9-0.3,1.6-0.9,2.2c-0.6,0.6-1.3,0.9-2.2,0.9c-0.9,0-1.6-0.3-2.2-0.9c-0.6-0.6-0.9-1.3-0.9-2.2V47.7c0-0.9,0.3-1.7,0.9-2.2
		c0.6-0.6,1.3-0.9,2.2-0.9h10.8c3,0,5.6,0.6,8,1.9c2.3,1.2,4.2,3,5.5,5.2c1.3,2.2,1.9,4.8,1.9,7.7c0,2.8-0.7,5.4-2.2,7.6
		c-1.4,2.2-3.4,3.9-5.9,5l9.2,14.8C373,87.3,373.2,87.9,373.2,88.6z M356.1,67.6c2.7,0,5-0.8,6.7-2.3c1.8-1.5,2.6-3.5,2.6-6
		c0-2.6-0.9-4.8-2.6-6.5c-1.8-1.7-4-2.5-6.7-2.5h-7.7v17.3H356.1z"/>
	<path d="M388.7,88.9c-3.5-2.1-6.3-5-8.4-8.7c-2-3.7-3.1-7.7-3.1-12.2c0-4.4,1-8.4,3.1-12.1c2-3.7,4.8-6.6,8.4-8.7
		c3.5-2.1,7.4-3.2,11.7-3.2c3,0,5.7,0.4,7.9,1.2c2.2,0.8,4.5,2.1,6.8,4c0.5,0.4,0.8,0.7,1,1.1c0.2,0.4,0.2,0.8,0.2,1.4
		c0,0.8-0.3,1.5-0.9,2c-0.6,0.5-1.3,0.8-2,0.8c-0.8,0-1.5-0.3-2.1-0.8c-1.6-1.4-3.2-2.4-4.8-3c-1.6-0.6-3.6-0.9-6.1-0.9
		c-3.1,0-6,0.8-8.6,2.5c-2.6,1.6-4.7,3.9-6.2,6.7c-1.5,2.8-2.3,5.9-2.3,9.2c0,3.4,0.8,6.4,2.3,9.2c1.5,2.8,3.6,5,6.2,6.7
		c2.6,1.6,5.5,2.5,8.6,2.5c3.8,0,7.5-1.3,11-4c0.7-0.5,1.3-0.7,2-0.7c0.8,0,1.4,0.3,1.9,0.8c0.5,0.5,0.8,1.2,0.8,2.1
		c0,0.8-0.3,1.6-1,2.2c-4.3,3.5-9.2,5.2-14.7,5.2C396.1,92,392.2,91,388.7,88.9z"/>
	<path d="M424.7,90.5c-0.6-0.6-0.9-1.3-0.9-2.2V47.7c0-0.9,0.3-1.7,0.9-2.2c0.6-0.6,1.3-0.9,2.2-0.9H454c0.9,0,1.7,0.3,2.2,0.8
		c0.6,0.5,0.8,1.2,0.8,2.1c0,0.8-0.3,1.5-0.8,2c-0.6,0.5-1.3,0.8-2.2,0.8h-24v14.6h17.2c0.9,0,1.6,0.3,2.2,0.8
		c0.6,0.5,0.9,1.2,0.9,2.1s-0.3,1.5-0.9,2.1c-0.6,0.5-1.3,0.8-2.2,0.8H430v15h24c0.9,0,1.7,0.3,2.2,0.8c0.6,0.5,0.8,1.2,0.8,2
		c0,0.9-0.3,1.6-0.8,2.1c-0.6,0.5-1.3,0.8-2.2,0.8h-27.1C426,91.4,425.3,91.1,424.7,90.5z"/>
	<path d="M464.9,90.5c-0.6-0.6-0.9-1.3-0.9-2.2V47.7c0-0.9,0.3-1.6,0.9-2.2c0.6-0.6,1.3-0.9,2.2-0.9c0.9,0,1.6,0.3,2.2,0.9
		c0.6,0.6,0.9,1.3,0.9,2.2v37.5H492c0.9,0,1.6,0.3,2.2,0.9c0.6,0.6,0.9,1.3,0.9,2.2c0,0.9-0.3,1.6-0.9,2.2c-0.6,0.6-1.3,0.9-2.2,0.9
		h-24.8C466.3,91.4,465.5,91.1,464.9,90.5z"/>
	<path d="M501.3,91.5c-0.6-0.6-0.9-1.3-0.9-2.2c0-0.8,0.3-1.5,0.9-2.1c0.6-0.6,1.3-0.9,2.2-0.9c0.8,0,1.5,0.3,2.1,0.9
		c0.6,0.6,0.9,1.3,0.9,2.1c0,0.8-0.3,1.6-0.9,2.2c-0.6,0.6-1.3,0.9-2.1,0.9C502.6,92.4,501.9,92.1,501.3,91.5z"/>
	<path d="M521.7,88.8c-3.6-2.2-6.5-5.1-8.6-8.8c-2.1-3.7-3.2-7.7-3.2-12c0-4.3,1.1-8.3,3.2-11.9s4.9-6.6,8.5-8.8
		c3.6-2.2,7.5-3.3,11.8-3.3c5.6,0,10.5,1.8,14.8,5.3c0.4,0.3,0.5,0.7,0.5,1.2c0,0.5-0.2,0.9-0.5,1.3c-0.3,0.4-0.8,0.6-1.3,0.6
		c-0.4,0-0.9-0.2-1.5-0.7c-3-2.7-7.1-4.1-12.1-4.1c-3.5,0-6.8,0.9-9.9,2.8c-3.1,1.9-5.5,4.4-7.3,7.5c-1.8,3.1-2.7,6.5-2.7,10
		c0,3.7,0.9,7.1,2.7,10.2c1.8,3.1,4.2,5.6,7.3,7.5c3.1,1.8,6.4,2.8,9.9,2.8c4.7,0,8.9-1.5,12.4-4.4c0.3-0.2,0.6-0.3,0.9-0.3
		c0.5,0,0.9,0.2,1.3,0.5c0.4,0.4,0.6,0.8,0.6,1.3s-0.1,0.9-0.4,1.3c-3.4,3.4-8.4,5.2-14.8,5.2C529.2,92,525.3,90.9,521.7,88.8z"/>
	<path d="M563.7,88.9c-3.7-2.1-6.5-5-8.6-8.6s-3.2-7.7-3.2-12.3c0-4.5,1.1-8.5,3.2-12.2s5-6.5,8.6-8.6c3.7-2.1,7.8-3.2,12.3-3.2
		c4.5,0,8.5,1,12.2,3.2c3.7,2.1,6.5,5,8.6,8.6c2.1,3.7,3.2,7.7,3.2,12.2c0,4.5-1,8.6-3.2,12.3c-2.1,3.7-5,6.5-8.6,8.6
		S580.5,92,576,92C571.5,92,567.4,91,563.7,88.9z M586.4,85.8c3.1-1.8,5.6-4.2,7.3-7.4c1.8-3.1,2.7-6.6,2.7-10.4
		c0-3.8-0.9-7.3-2.7-10.4c-1.8-3.1-4.2-5.6-7.3-7.4c-3.1-1.8-6.6-2.7-10.4-2.7c-3.8,0-7.3,0.9-10.4,2.7c-3.1,1.8-5.6,4.2-7.3,7.4
		c-1.8,3.1-2.7,6.6-2.7,10.4c0,3.8,0.9,7.3,2.7,10.4c1.8,3.1,4.2,5.6,7.3,7.4c3.1,1.8,6.6,2.7,10.4,2.7
		C579.8,88.4,583.3,87.5,586.4,85.8z"/>
	<path d="M604.3,91.5c-0.6-0.6-0.9-1.3-0.9-2.2c0-0.8,0.3-1.5,0.9-2.1c0.6-0.6,1.3-0.9,2.2-0.9c0.8,0,1.5,0.3,2.1,0.9
		c0.6,0.6,0.9,1.3,0.9,2.1c0,0.8-0.3,1.6-0.9,2.2c-0.6,0.6-1.3,0.9-2.1,0.9C605.6,92.4,604.9,92.1,604.3,91.5z"/>
	<path d="M625,90.3c-2.7-1.4-4.9-3.3-6.4-5.8c-1.5-2.5-2.3-5.3-2.3-8.4V46.4c0-0.6,0.2-1,0.5-1.3s0.8-0.5,1.3-0.5
		c0.6,0,1,0.2,1.3,0.5c0.3,0.3,0.5,0.8,0.5,1.3v29.8c0,2.4,0.6,4.6,1.8,6.5c1.2,1.9,2.9,3.4,5.1,4.5c2.2,1.1,4.7,1.6,7.5,1.6
		c2.8,0,5.3-0.5,7.5-1.6c2.2-1.1,3.9-2.6,5.1-4.5c1.2-1.9,1.9-4.1,1.9-6.5V46.4c0-0.6,0.2-1,0.5-1.3s0.8-0.5,1.3-0.5
		c0.6,0,1,0.2,1.3,0.5c0.3,0.3,0.5,0.8,0.5,1.3v29.8c0,3.2-0.8,6-2.3,8.4c-1.5,2.5-3.7,4.4-6.4,5.8c-2.7,1.4-5.8,2.1-9.3,2.1
		S627.7,91.7,625,90.3z"/>
	<path d="M663.6,90.9c-0.4-0.3-0.5-0.8-0.5-1.3V46.4c0-0.5,0.2-1,0.5-1.3c0.4-0.3,0.8-0.5,1.3-0.5c0.5,0,1,0.2,1.3,0.5
		c0.3,0.3,0.5,0.8,0.5,1.3v22L690,45.1c0.4-0.4,0.9-0.5,1.4-0.5c0.5,0,1,0.2,1.3,0.5c0.3,0.4,0.5,0.8,0.5,1.3c0,0.4-0.2,0.9-0.5,1.3
		l-17.2,17.2l17.4,23.6c0.2,0.4,0.4,0.7,0.4,1.1c0,0.5-0.2,0.9-0.5,1.3c-0.4,0.4-0.8,0.5-1.2,0.5c-0.7,0-1.2-0.3-1.6-0.8l-17.1-23.1
		l-6.1,6.1v16c0,0.5-0.2,1-0.5,1.3s-0.8,0.5-1.3,0.5C664.4,91.4,664,91.3,663.6,90.9z"/>
</g>
<g>
	<path class="st0" d="M45.9,35.2H92c8,0,12.8,8.8,8.5,15.6l-23.1,36c-4,6.2-13,6.2-17,0l-23.1-36C33,44,37.9,35.2,45.9,35.2z"/>
	<g>
		<path class="st0" d="M24.8,45.3c0-11.6,9.4-21,21-21H92c11.6,0,21,9.4,21,21c0,4-1.2,7.9-3.3,11.3l-23.1,36
			c-3.9,6.1-10.5,9.7-17.7,9.7s-13.8-3.6-17.7-9.7l-23.1-36C26,53.2,24.8,49.3,24.8,45.3z M112.1,45.3c0-11.1-9-20-20-20H45.9
			c-11,0-20,9-20,20c0,3.8,1.1,7.5,3.2,10.8l23.1,36c3.7,5.8,10,9.2,16.9,9.2s13.2-3.4,16.9-9.2l23.1-36
			C111,52.8,112.1,49.1,112.1,45.3z"/>
	</g>
	<g>
		<path class="st0" d="M13.2,45.3c0-18,14.7-32.7,32.7-32.7H92c18,0,32.7,14.7,32.7,32.7c0,6.2-1.8,12.3-5.2,17.6l-23.1,36
			c-6,9.4-16.3,15.1-27.5,15.1s-21.5-5.6-27.5-15.1l-23.1-36C14.9,57.6,13.2,51.5,13.2,45.3z M123.8,45.3
			c0-17.5-14.2-31.7-31.7-31.7H45.9c-17.5,0-31.7,14.2-31.7,31.7c0,6,1.7,12,5,17.1l23.1,36c5.9,9.1,15.8,14.6,26.7,14.6
			s20.8-5.5,26.7-14.6l23.1-36C122,57.3,123.8,51.4,123.8,45.3z"/>
	</g>
</g>
</svg>
