<?xml version="1.0" encoding="utf-8"?>
<!-- Generator: Adobe Illustrator 23.0.3, SVG Export Plug-In . SVG Version: 6.00 Build 0)  -->
<svg version="1.1" id="OBJECTS" xmlns="http://www.w3.org/2000/svg" xmlns:xlink="http://www.w3.org/1999/xlink" x="0px" y="0px"
	 viewBox="0 0 500 151.2" style="enable-background:new 0 0 500 151.2;" xml:space="preserve">
<style type="text/css">
	.st0{fill:#BA0000;}
</style>
<g id="New_Symbol">
</g>
<path class="st0" d="M489.5,151.1v-25h-0.9c-0.5-1.1-1.2-2-1.9-2.4v-1.1h-0.5V121h-1v1.6h-0.5v1.1c-0.7,0.5-1.3,1.3-1.9,2.4h-7.1
	c-0.5-1.1-1.2-2-1.9-2.4v-1.1h-0.5V121h-1v1.6h-0.5v1.1c-0.7,0.5-1.3,1.3-1.9,2.4H469v-9.5h-1.1c-0.9-1.9-2-3.4-3.2-4.2v-1.9h-1.3
	v-2.7h-1v2.7h-1.3v1.9c-1.2,0.8-2.3,2.3-3.2,4.2h-1.1v9.5h-0.9c-0.5-1.1-1.2-2-1.9-2.4v-1.1h-0.5V121h-1v1.6H452v1.1
	c-0.7,0.5-1.3,1.3-1.9,2.4h-7.4c-0.5-1.1-1.2-2-1.9-2.4v-1.1h-0.5V121h-1v1.6h-0.5v1.1c-0.7,0.5-1.3,1.3-1.9,2.4h-7.4
	c-0.5-1.1-1.2-2-1.9-2.4v-1.1h-0.5V121h-1v1.6h-0.5v1.1c-0.7,0.5-1.3,1.3-1.9,2.4h-1.5v-9.5H421c-0.9-1.9-2-3.4-3.2-4.2v-1.9h-1.3
	v-2.7h-1v2.7h-1.3v1.9c-1.2,0.8-2.3,2.3-3.2,4.2h-1.1v29.8h-5.7v-11.1l-0.7-1.7v-5.9h1.1v-1.4h-1.7v-3.8h0.9v-1.4h-1.3v-4.9h0.7
	v-1.4H402l-1.6-16.5l-1.6,16.5h-1.1v1.4h0.7v4.9h-1.3v1.4h0.9v3.8h-1.7v1.4h1.1v5.9l-0.7,1.7l-1.7-2.5v-6.5l-2.8-3.2v-7.3h-1.9v-4
	c0-5.1-3.6-9.3-8.4-10.2v-5.1h0.7v-1.6h-1.1l-1.6-18.3l-1.6,18.3h-1.1v1.6h0.7v5.1c-4.8,0.9-8.4,5.1-8.4,10.2v4h-1.9v7.3l-2.8,3.2
	v6.5h0l-1.6,2.3l-0.6-1.5v-5.9h1.1v-1.4h-1.7v-3.8h0.9v-1.4h-1.3v-4.9h0.7v-1.4H361l-1.6-16.5l-1.6,16.5h-1.1v1.4h0.7v4.9h-1.3v1.4
	h0.9v3.8h-1.7v1.4h1.1v5.9l-0.7,1.7v11.1h-4.4c-2.2-23.3-10.5-110.9-10.5-110.9h-1.8v110.9h-2V51.7h-2V38.4l-1.6-2.9
	c0,0-6.9,45.3-12.1,79.4h-16.7v-1.4h-2v1.4h-1.6v-1.4h-2v1.4h-30.3v-7.3h0.9v-1.8h-0.9l-2.2-7.6V94h-1v4.1l-1.4,4.7l-2.7-9.4v-4.2
	h-1v4.2l-2.7,9.4l-1.4-4.7V94h-1v4.1l-2.2,7.6H252v1.8h0.9v6.3c-2.4,4.7-11.6,21.7-25.6,30.1V86.8h2.1V60.4H226v-9.1l-4.8-7.5h0.8
	V42h-1.4v-6.2h1.4v-1.8h-1.1c-1.1-2.3-3.8-8.9-3.8-19.3h-0.3V6h-1v8.7h-0.3c0,10.4-2.7,17-3.8,19.3h-1.1v1.8h1.4V42h-1.4v1.8h0.8
	l-4.8,7.5v9.1h-3.5v26.4h2.1v59.7h-4.3v-31.3h-2.8v-6.7h-1.4v-5h1.4v-1.8h-1.4v-8.6h1.4v-1.8h-1.4v-8.6h1.4v-1.8h-1.4h-0.3V76h0.8
	v-1.3h-0.6c-0.6-1.7-2-6.5-2-14.1h-0.2h-0.5h-0.2c0,7.6-1.4,12.4-2,14.1h-0.6V76h0.8v1.2h-7.5V76h0.8v-1.3h-0.6
	c-0.6-1.7-2-6.5-2-14.1h-0.2h-0.5h-0.2c0,7.6-1.4,12.4-2,14.1h-0.6V76h0.8v4.8h-1.1v1.8h1.4v8.6h-1.4v1.8h1.4v8.6h-1.4v1.8h1.4v5
	h-3.7L166,96.7v-4.9h-1v4.9l-10.6,11.8h-3.7v-5h1.4v-1.8h-1.4v-8.6h1.4v-1.8h-1.4v-8.6h1.4v-1.8h-1.4h-0.3V76h0.8v-1.3h-0.6
	c-0.6-1.7-2-6.5-2-14.1h-0.2H148h-0.2c0,7.6-1.4,12.4-2,14.1h-0.6V76h0.8v1.2h-7.5V76h0.8v-1.3h-0.6c-0.6-1.7-2-6.5-2-14.1h-0.2H136
	h-0.2c0,6.2-0.9,10.5-1.6,12.8c-1.1-1.9-2.4-3.6-3.8-5.3l0.3-0.2c0.4,0.2,0.8,0.1,1.1-0.2c0.5-0.4,0.5-1.1,0.1-1.6
	c-0.4-0.5-1.1-0.5-1.6-0.1c-0.3,0.3-0.4,0.7-0.4,1.1l-0.3,0.2c-1.6-1.8-3.2-3.5-5-5l0.2-0.3c0.4,0.1,0.8,0,1.1-0.4
	c0.4-0.5,0.3-1.2-0.1-1.6c-0.5-0.4-1.2-0.3-1.6,0.1c-0.3,0.3-0.3,0.8-0.2,1.1l-0.2,0.3c-1.8-1.5-3.8-2.9-5.8-4.1l0.2-0.3
	c0.4,0,0.8-0.2,1-0.5c0.3-0.5,0.1-1.2-0.4-1.5c-0.5-0.3-1.2-0.1-1.5,0.4c-0.2,0.4-0.2,0.8,0,1.1l-0.2,0.3c-2.1-1.2-4.2-2.2-6.5-3
	l0.1-0.3c0.4-0.1,0.8-0.3,0.9-0.7c0.2-0.6-0.1-1.2-0.7-1.4c-0.6-0.2-1.2,0.1-1.4,0.7c-0.1,0.4,0,0.8,0.2,1.1l-0.1,0.3
	c0,0-0.1,0-0.1,0c-3-7.6-6.5-12.1-10.3-12.1c-3.4,0-6.5,3.5-9.3,9.7c-1.1,0.1-2.3,0.2-3.4,0.4l-0.1-0.3c0.3-0.2,0.5-0.6,0.4-1.1
	c-0.1-0.6-0.7-1-1.3-0.9c-0.6,0.1-1,0.7-0.9,1.3c0.1,0.4,0.4,0.7,0.8,0.9l0.1,0.3c-2.4,0.4-4.7,1.1-6.9,1.8l-0.1-0.3
	c0.3-0.3,0.4-0.7,0.2-1.1c-0.2-0.6-0.8-0.9-1.4-0.7c-0.6,0.2-0.9,0.8-0.7,1.4c0.1,0.4,0.5,0.7,0.9,0.7l0.1,0.3
	c-2.2,0.8-4.4,1.9-6.5,3l-0.2-0.3c0.2-0.3,0.2-0.8,0-1.1c-0.3-0.5-1-0.7-1.5-0.4c-0.5,0.3-0.7,1-0.4,1.5c0.2,0.4,0.6,0.6,1,0.5
	l0.2,0.3c-2.1,1.2-4,2.6-5.9,4.1l-0.2-0.3c0.1-0.4,0.1-0.8-0.2-1.1c-0.4-0.5-1.1-0.5-1.6-0.1c-0.5,0.4-0.5,1.1-0.1,1.6
	c0.3,0.3,0.7,0.4,1.1,0.4l0.2,0.3c-1.8,1.6-3.5,3.2-5.1,5.1l-0.3-0.2c0.1-0.4,0-0.8-0.4-1.1c-0.5-0.4-1.2-0.3-1.6,0.1
	c-0.4,0.5-0.3,1.2,0.1,1.6c0.3,0.3,0.8,0.3,1.1,0.2l0.3,0.2C56.5,70,55.2,71.9,54,74l-0.3-0.2c0-0.4-0.2-0.8-0.5-1
	c-0.5-0.3-1.2-0.1-1.5,0.4c-0.3,0.5-0.1,1.2,0.4,1.5c0.4,0.2,0.8,0.2,1.1,0l0.3,0.2c-1.2,2.1-2.2,4.2-3,6.5l-0.3-0.1
	c-0.1-0.4-0.3-0.7-0.7-0.9c-0.6-0.2-1.2,0.1-1.4,0.7c-0.2,0.6,0.1,1.2,0.7,1.4c0.4,0.1,0.8,0,1.1-0.2l0.3,0.1
	c-0.8,2.2-1.4,4.5-1.8,6.9l-0.3-0.1c-0.1-0.4-0.4-0.7-0.9-0.8c-0.6-0.1-1.2,0.3-1.3,0.9c-0.1,0.6,0.3,1.2,0.9,1.3
	c0.4,0.1,0.8-0.1,1.1-0.4l0.3,0.1c-0.4,2.3-0.6,4.7-0.6,7.1h-0.3c-0.2-0.4-0.5-0.6-1-0.6c-0.6,0-1.1,0.5-1.1,1.1
	c0,0.6,0.5,1.1,1.1,1.1c0.4,0,0.8-0.2,1-0.6h0.3c0,2.4,0.2,4.8,0.6,7.1l-0.3,0.1c-0.2-0.3-0.6-0.5-1.1-0.4c-0.6,0.1-1,0.7-0.9,1.3
	c0.1,0.6,0.7,1,1.3,0.9c0.4-0.1,0.7-0.4,0.9-0.8l0.3-0.1c0.4,2.4,1.1,4.7,1.8,6.9l-0.3,0.1c-0.3-0.3-0.7-0.4-1.1-0.2
	c-0.6,0.2-0.9,0.8-0.7,1.4c0.2,0.6,0.8,0.9,1.4,0.7c0.4-0.1,0.7-0.5,0.7-0.9l0.3-0.1c0.6,1.5,1.2,3,1.9,4.4
	c-2.9-1.5-6.2-2.6-9.9-3.1v-2.6h-9.6v2.6c-7.3,1-13.5,4.3-17,8.9h-5.2v4.7h-3v17.2v4.6H0v2h500v-2H489.5z M184.4,80.8v-1.1h7.5v1.1
	H184.4z M192,78.3v0.4h-7.5v-0.4H192z M253,126.2H252v1.8h0.9v12.4H252v1.8h0.9v4.2h-7.9v-15.2c3.8-5.4,6.4-10.5,7.9-13.6V126.2z
	 M244.1,146.5h-7.4v-5.2c2.8-2.7,5.3-5.7,7.4-8.6V146.5z M235.6,146.5h-5.3c1.9-1.3,3.6-2.7,5.3-4.2V146.5z M268.6,146.5v-4.2h0.9
	v-1.8h-0.9V128h0.9v-1.8h-0.9v-7.1h52c-1.8,11.6-3.3,21.5-4.2,27.4H268.6z M294.7,117v-1.1h1.1v1.1H294.7z M293.6,117h-1.1v-1.1h1.1
	V117z M291.5,117h-1.1v-1.1h1.1V117z M289.3,117h-1.1v-1.1h1.1V117z M287.2,117h-1.1v-1.1h1.1V117z M285.1,117h-1.1v-1.1h1.1V117z
	 M282.9,117h-1.1v-1.1h1.1V117z M280.8,117h-1.1v-1.1h1.1V117z M278.6,117h-1.1v-1.1h1.1V117z M276.5,117h-1.1v-1.1h1.1V117z
	 M274.3,117h-1.1v-1.1h1.1V117z M272.2,117h-1.1v-1.1h1.1V117z M318.6,117v-1.1h1.1v1.1H318.6z M317.6,117h-1.1v-1.1h1.1V117z
	 M315.5,117h-1.1v-1.1h1.1V117z M313.3,117h-1.1v-1.1h1.1V117z M311.2,117h-1.1v-1.1h1.1V117z M309,117h-1.1v-1.1h1.1V117z M321,117
	h-0.2v-1.1h0.3C321.1,116.3,321,116.7,321,117z M306.9,115.9v1.1h-2.3v-1.1H306.9z M302.5,115.9v1.1h-1.6v-1.1H302.5z M298.9,117
	h-2.1v-1.1h2.1V117z M270,115.9v1.1h-1.4v-1.1H270z M250.2,120.9c-3.8,7.3-11.1,18.9-21.7,25.6h-1.2v-1.3
	C237.8,139.1,245.7,128.2,250.2,120.9z M52.5,79.9l1.3-0.6c-0.3,0.7-0.6,1.4-0.9,2L52.5,79.9z M54.5,75.8l1.4-0.5
	c-0.4,0.6-0.7,1.3-1.1,2L54.5,75.8z M57,71.9l1.4-0.4c-0.4,0.6-0.9,1.2-1.3,1.8L57,71.9z M58.4,73.3l23,16.1c0,0.1,0,0.2,0,0.3
	L56.9,75.6C57.3,74.9,57.8,74.1,58.4,73.3z M131.6,75.6l-15,8.6c-0.1-0.5-0.1-0.9-0.2-1.4l13.7-9.6
	C130.7,74.1,131.1,74.9,131.6,75.6z M134,80.3v0.5h-1.1v1.8h1.4v0l-17.1,6.2c0-0.4-0.1-0.8-0.1-1.2l16.8-7.8
	C133.9,80,134,80.2,134,80.3z M67.2,129.3h-2.5v-1.2L79.8,113c0,0.4,0,0.9,0,1.3L67.2,129.3z M58.9,123.2l21-14.7c0,0.2,0,0.5,0,0.7
	l-18.3,15.4H60C59.6,124.1,59.3,123.6,58.9,123.2z M79.9,111.5l-15.2,15.2v-2.1h-1.5l16.7-14C79.9,110.8,79.9,111.2,79.9,111.5z
	 M118.1,98.3h16.2v2.5l-16.2-1.4C118.1,99,118.1,98.7,118.1,98.3z M118.5,104.8l14.4,3.9v2.6l-14.3-5.2
	C118.6,105.7,118.5,105.3,118.5,104.8z M130.1,120.8h-1.6v-1.6h-2.8l-6.8-4.8c0-0.6,0-1.2-0.1-1.8l11.3,6.5V120.8z M124.1,120.8
	h-1.7l-0.4-0.3v-1.3h-1.5l-1.6-1.3c0-0.7,0-1.4,0-2.2l5.2,3.6V120.8z M130.1,115.2v2.7l-11.3-6.5c0-0.5,0-1.1-0.1-1.6l11.6,5.4
	H130.1z M132.7,115.2l-14.1-6.6c0-0.5,0-0.9-0.1-1.4l14.2,5.2v2.8H132.7z M118.5,103.8c0-0.4,0-0.8-0.1-1.2l15.9,2.8v2.6
	L118.5,103.8z M118.3,101.5c0-0.4-0.1-0.7-0.1-1.1l14.7,1.3h-0.1v1.8h1.4v0.8L118.3,101.5z M134.3,97.3H118c0-0.4-0.1-0.7-0.1-1
	l16.4-1.4V97.3z M117.5,92.1l16.8-4.5v2.6l-16.7,2.9C117.6,92.8,117.6,92.5,117.5,92.1z M117.4,91.1c0-0.4-0.1-0.7-0.1-1.1l17-6.2
	v2.8L117.4,91.1z M117.8,95.2c0-0.4-0.1-0.7-0.1-1l15.1-2.7v1.6h1.4v0.7L117.8,95.2z M134.3,91.3L134.3,91.3L134.3,91.3L134.3,91.3z
	 M80.8,94.9l-29.3-5.2c0.2-0.9,0.4-1.8,0.6-2.7l28.7,7.7C80.9,94.8,80.8,94.9,80.8,94.9z M80.8,96c0,0.1,0,0.1,0,0.2L51,93.5
	c0.1-0.9,0.2-1.8,0.4-2.7L80.8,96z M80.7,97.1c0,0.1,0,0.1,0,0.2H50.8c0-0.9,0.1-1.9,0.1-2.8L80.7,97.1z M80.6,98.3
	c0,0.1,0,0.1,0,0.2l-29.6,2.6c-0.1-0.9-0.1-1.8-0.1-2.8H80.6z M80.5,99.5c0,0.1,0,0.1,0,0.2l-29.1,5.1c-0.1-0.9-0.3-1.8-0.4-2.7
	L80.5,99.5z M80.4,100.8c0,0.1,0,0.2,0,0.2l-28.3,7.6c-0.2-0.9-0.4-1.8-0.6-2.7L80.4,100.8z M80,107.1l-21.7,15.2
	c-0.5-0.8-1-1.5-1.5-2.3l23.2-13.4C80,106.8,80,107,80,107.1z M67.7,130.3l12.1-14.4c0,0.6,0,1.2,0,1.8l-10.8,15.4
	c-0.4-0.3-0.8-0.6-1.2-0.9V130.3z M79.7,119.5c0,0.8,0,1.7,0,2.5l-7.6,13.2c-0.8-0.5-1.6-1-2.3-1.5L79.7,119.5z M73,135.7l6.7-11.6
	c0,1.2,0,2.5,0,3.7l-4.3,9.2C74.6,136.6,73.8,136.2,73,135.7z M76.3,137.4l3.4-7.3c0,1.9,0.1,3.7,0.2,5.6l-1,2.8
	C78,138.2,77.2,137.8,76.3,137.4z M80,138.3c0,0.2,0,0.4,0,0.6c-0.1,0-0.1,0-0.2-0.1L80,138.3z M133.4,79L117,86.7
	c-0.1-0.4-0.1-0.9-0.2-1.3l15.3-8.9C132.6,77.3,133,78.1,133.4,79z M115,73.8l7.5-9c0.7,0.6,1.4,1.2,2,1.9l-9.2,9.2
	C115.3,75.2,115.2,74.5,115,73.8z M114.8,72.5c-0.2-0.8-0.3-1.7-0.5-2.5l5.3-7.5c0.8,0.5,1.5,1.1,2.2,1.7L114.8,72.5z M114,68.7
	c-0.2-1-0.4-2-0.7-2.9l3.1-5.3c0.8,0.5,1.6,1,2.3,1.5L114,68.7z M115.5,59.9l-2.5,4.4c-0.3-1.2-0.6-2.4-0.9-3.5l1-2.2
	C113.9,59,114.7,59.5,115.5,59.9z M112.1,58.2l-0.5,1.1c-0.2-0.5-0.3-1.1-0.5-1.6C111.5,57.9,111.8,58.1,112.1,58.2z M85.7,64.1
	l-2.2-8.4c0.9-0.2,1.8-0.4,2.7-0.6l0.8,4.4C86.5,61,86.1,62.5,85.7,64.1z M82.5,56l2.7,10.2c-0.3,1.1-0.5,2.2-0.7,3.4l-4.6-12.7
	C80.7,56.5,81.6,56.2,82.5,56z M78.9,57.1l5.2,14.3c-0.2,0.8-0.3,1.6-0.5,2.4l-7.3-15.6C77.2,57.8,78,57.5,78.9,57.1z M75.4,58.6
	l7.9,17c-0.1,0.6-0.2,1.2-0.3,1.8L73,59.9C73.8,59.5,74.6,59,75.4,58.6z M72.1,60.4L82.8,79c-0.1,0.4-0.1,0.9-0.2,1.3L69.7,61.9
	C70.5,61.4,71.3,60.9,72.1,60.4z M82.4,81.7c0,0.3-0.1,0.6-0.1,1L66.7,64.2c0.7-0.6,1.5-1.1,2.2-1.7L82.4,81.7z M82,84.1
	c0,0.2-0.1,0.5-0.1,0.7L63.9,66.7c0.7-0.6,1.3-1.3,2-1.9L82,84.1z M56.4,76.5l24.9,14.4c0,0.1,0,0.2,0,0.3L55.1,79
	C55.5,78.1,55.9,77.3,56.4,76.5z M54.6,79.9l26.5,12.3c0,0.1,0,0.2,0,0.2l-27.5-10C53.9,81.6,54.3,80.8,54.6,79.9z M53.2,83.4
	L81,93.5c0,0.1,0,0.1,0,0.2l-28.6-7.7C52.6,85.2,52.9,84.3,53.2,83.4z M80.3,102.1c0,0.1,0,0.2,0,0.3l-27.1,9.8
	c-0.3-0.9-0.6-1.8-0.8-2.6L80.3,102.1z M80.2,103.5c0,0.1,0,0.2,0,0.3l-25.6,11.9c-0.4-0.8-0.7-1.7-1.1-2.6L80.2,103.5z M55.1,116.6
	L80.1,105c0,0.1,0,0.3,0,0.4l-23.8,13.7C55.9,118.3,55.5,117.5,55.1,116.6z M67.7,133.5c0.1,0.1,0.2,0.1,0.2,0.2l-0.2,0V133.5z
	 M71.7,136.1l-1.5,0.2l-0.4-1.4C70.4,135.4,71,135.8,71.7,136.1z M75.7,138.2l-1.4,0.4l-0.6-1.4C74.3,137.6,75,137.9,75.7,138.2z
	 M79.8,139.9l-1.4,0.5l-0.7-1.3C78.4,139.4,79.1,139.7,79.8,139.9z M133.9,76l-0.2,1.2c-0.3-0.7-0.7-1.3-1.1-2l0.7,0.2V76H133.9z
	 M131.4,73.3c-0.4-0.6-0.8-1.2-1.3-1.8l1.4,0.4L131.4,73.3z M129.5,72.5l-13.2,9.3c-0.1-0.5-0.1-1.1-0.2-1.6l11.8-9.9
	C128.4,71,129,71.7,129.5,72.5z M115.9,79c-0.1-0.6-0.2-1.2-0.3-1.8l9.7-9.7c0.6,0.7,1.3,1.3,1.9,2L115.9,79z M124.1,64.8l1.5,0.1
	l0.1,1.5C125.2,65.8,124.6,65.3,124.1,64.8z M120.6,62l1.5-0.1l0.3,1.4C121.8,62.9,121.2,62.4,120.6,62z M116.8,59.5l1.5-0.2
	l0.4,1.4C118.1,60.3,117.5,59.9,116.8,59.5z M112.8,57.4l1.4-0.4l0.6,1.4C114.2,58,113.5,57.7,112.8,57.4z M110.7,56.5
	c0,0,0-0.1,0-0.1L110.7,56.5C110.7,56.5,110.7,56.5,110.7,56.5z M87.6,57.4l-0.4-2.5c0.5-0.1,0.9-0.1,1.4-0.2
	C88.3,55.6,87.9,56.5,87.6,57.4z M82,55l0.8-1.2l1.3,0.6C83.4,54.7,82.7,54.8,82,55z M77.8,56.5l0.7-1.3l1.4,0.5
	C79.1,56,78.4,56.2,77.8,56.5z M73.7,58.4l0.6-1.4l1.4,0.4C75,57.7,74.3,58,73.7,58.4z M69.8,60.7l0.4-1.4l1.5,0.2
	C71,59.9,70.4,60.3,69.8,60.7z M66.2,63.3l0.3-1.4l1.5,0.1C67.3,62.4,66.7,62.9,66.2,63.3z M62.8,66.4l0.1-1.5l1.5-0.1
	C63.9,65.3,63.3,65.8,62.8,66.4z M63.2,67.5l18.6,18.6c0,0.2,0,0.4-0.1,0.6L61.3,69.5C61.9,68.8,62.5,68.1,63.2,67.5z M60.6,70.3
	l20.9,17.6c0,0.1,0,0.3,0,0.4L58.9,72.5C59.5,71.7,60,71,60.6,70.3z M51.5,85.6l-0.6-1.3l1.2-0.8C51.9,84.1,51.7,84.8,51.5,85.6z
	 M50.9,87.8c-0.2,0.7-0.3,1.4-0.4,2.2l-0.7-1.3L50.9,87.8z M49.9,94.4l-0.8-1.2l1.1-1C50,92.9,49.9,93.7,49.9,94.4z M49.8,98.9
	l-1-1.1l1-1.1c0,0.4,0,0.7,0,1.1C49.7,98.2,49.8,98.6,49.8,98.9z M50.1,103.4l-1.1-1l0.8-1.2C49.9,102,50,102.7,50.1,103.4z
	 M50.9,107.9l-1.2-0.9l0.7-1.3C50.6,106.4,50.7,107.1,50.9,107.9z M51.5,110.1c0.2,0.7,0.4,1.4,0.7,2.1l-1.2-0.8L51.5,110.1z
	 M52.9,114.3c0.3,0.7,0.6,1.4,0.9,2l-1.3-0.6L52.9,114.3z M54.8,118.4c0.3,0.7,0.7,1.3,1.1,2l-1.4-0.5L54.8,118.4z M67.7,134.7
	l0.9,0l0.4,1.4c-0.5-0.3-0.9-0.6-1.4-0.9V134.7z M71,137.3l1.5-0.2l0.6,1.4C72.4,138.1,71.7,137.7,71,137.3z M76.5,139.1l0.7,1.3
	c-0.7-0.3-1.4-0.6-2.2-0.9L76.5,139.1z M80.2,140.9c0,0.2,0,0.4,0,0.6c-0.3-0.1-0.5-0.2-0.8-0.3L80.2,140.9z M132.3,74.1l0.2-1.5
	c0.4,0.6,0.8,1.3,1.2,2L132.3,74.1z M129.7,70.4l0-1.5c0.5,0.6,1,1.2,1.4,1.8L129.7,70.4z M128.7,69.7c-0.5-0.6-1-1.1-1.5-1.7
	l1.5,0.2L128.7,69.7z M123.5,63.8l-0.3-1.5c0.6,0.5,1.2,1,1.8,1.5L123.5,63.8z M119.9,61l-0.4-1.4c0.7,0.4,1.3,0.9,1.9,1.3L119.9,61
	z M116,58.6l-0.6-1.4c0.7,0.4,1.4,0.7,2,1.1L116,58.6z M111.9,56.6l-0.7-1.3c0.7,0.3,1.4,0.6,2.2,0.9L111.9,56.6z M86.4,54l1-1.1
	l1.2,0.8C87.9,53.8,87.1,53.9,86.4,54z M85.2,53.9l-1.3-0.7c0.8-0.2,1.5-0.3,2.3-0.5L85.2,53.9z M80.8,55l-1.4-0.5
	c0.7-0.3,1.5-0.5,2.2-0.7L80.8,55z M76.5,56.6l-1.4-0.4c0.7-0.3,1.4-0.6,2.2-0.9L76.5,56.6z M72.5,58.6L71,58.4
	c0.7-0.4,1.4-0.8,2-1.1L72.5,58.6z M68.6,61l-1.5-0.1c0.6-0.5,1.3-0.9,1.9-1.3L68.6,61z M65,63.8l-1.5,0.1c0.6-0.5,1.2-1,1.8-1.5
	L65,63.8z M59.8,69.7l0-1.5l1.5-0.2C60.7,68.6,60.3,69.1,59.8,69.7z M58.8,70.4l-1.4,0.4c0.5-0.6,0.9-1.2,1.4-1.9L58.8,70.4z
	 M56.2,74.1l-1.4,0.5c0.4-0.7,0.8-1.3,1.2-2L56.2,74.1z M54,78.1l-1.3,0.6c0.3-0.7,0.7-1.4,1-2.1L54,78.1z M52.2,82.2L50.9,83
	c0.3-0.7,0.5-1.5,0.8-2.2L52.2,82.2z M50.8,86.6l-1.2,0.9c0.2-0.8,0.4-1.5,0.6-2.3L50.8,86.6z M49.9,91l-1.1,1
	c0.1-0.8,0.2-1.6,0.4-2.3L49.9,91z M49.4,95.5l-1,1.1c0-0.8,0.1-1.6,0.1-2.4L49.4,95.5z M49.4,100.1l-0.9,1.2
	c-0.1-0.8-0.1-1.6-0.1-2.4L49.4,100.1z M49.9,104.6l-0.7,1.3c-0.1-0.8-0.3-1.6-0.4-2.3L49.9,104.6z M50.8,109.1l-0.6,1.4
	c-0.2-0.8-0.4-1.5-0.6-2.3L50.8,109.1z M52.2,113.4l-0.4,1.4c-0.3-0.7-0.6-1.5-0.8-2.2L52.2,113.4z M54,117.6l-0.3,1.5
	c-0.4-0.7-0.7-1.4-1-2.1L54,117.6z M67.7,136.4c0.9,0.6,1.8,1.2,2.7,1.7l-0.2,0.3c-0.4,0-0.8,0.2-1,0.5c-0.3,0.5-0.1,1.2,0.4,1.5
	c0.5,0.3,1.2,0.1,1.5-0.4c0.2-0.4,0.2-0.8,0-1.1l0.2-0.3c2.1,1.2,4.2,2.2,6.5,3l-0.1,0.3c-0.4,0.1-0.7,0.3-0.9,0.7
	c-0.2,0.6,0.1,1.2,0.7,1.4c0.6,0.2,1.2-0.1,1.4-0.7c0.1-0.4,0-0.8-0.2-1.1l0.1-0.3c0.5,0.2,1,0.4,1.6,0.5c0.1,1.3,0.2,2.6,0.3,3.9
	H67.7V136.4z M140.4,80.8c-0.3-0.5-0.8-0.7-1.3-0.5c-0.3,0.1-0.5,0.3-0.6,0.5h0v-1.1h7.5v1.1H140.4z M146,78.3v0.4h-7.5v-0.4H146z
	 M128.2,67.1l-1.5-0.2l-0.1-1.5C127.2,66,127.7,66.5,128.2,67.1z M89.3,52.9l-0.8-0.5c0.4,0,0.8-0.1,1.1-0.1
	C89.5,52.5,89.4,52.7,89.3,52.9z M61.9,65.4l-0.1,1.5l-1.5,0.2C60.8,66.5,61.3,66,61.9,65.4z"/>
</svg>
